<?xml version="1.0" encoding="UTF-8"?>
<svg width="314px" height="351px" viewBox="0 0 314 351" version="1.1" xmlns="http://www.w3.org/2000/svg" xmlns:xlink="http://www.w3.org/1999/xlink">
    <g stroke="none" stroke-width="1" fill="none" fill-rule="evenodd">
        <path d="M33.5419409,49.5111531 C88.5515382,49.5111531 143.851741,49.5111531 199.442549,49.5111531 C255.088138,49.5111531 310.733727,49.5111531 366.379316,49.5111531 L316.379316,113.511153 C278.730106,113.511153 234.735925,113.511153 184.396773,113.511153 C137.829716,113.511153 91.262659,113.511153 44.6956022,113.511153 C42.2003602,91.0435768 38.433122,69.6013291 33.5419326,49.5111188 Z M47.2248929,143.511153 L235.379316,143.511153 L185.379316,207.511153 L47.5678622,207.511153 C47.6772353,205.147659 47.7735113,202.777037 47.8565333,200.399598 C48.5342969,180.990987 48.2992004,161.973995 47.2248929,143.511153 Z M45.4496647,237.511153 L134.379316,237.511153 L84.3793165,301.511153 L35.7629889,301.511153 C40.0587985,281.130566 43.3345775,259.710434 45.4496647,237.511153 Z" fill="#24292E" transform="translate(199.960625, 175.511136) rotate(-20.000000) translate(-199.960625, -175.511136) "></path>
    </g>
</svg>